<svg xmlns="http://www.w3.org/2000/svg" xmlns:xlink="http://www.w3.org/1999/xlink" width="500" zoomAndPan="magnify" viewBox="0 0 375 374.999991" height="500" preserveAspectRatio="xMidYMid meet" version="1.0"><defs><g/><clipPath id="4334d1d286"><path d="M 151.222656 90.535156 L 202.972656 90.535156 L 202.972656 142.285156 L 151.222656 142.285156 Z M 151.222656 90.535156 " clip-rule="nonzero"/></clipPath></defs><rect x="-37.5" width="450" fill="#ffffff" y="-37.499999" height="449.999989" fill-opacity="1"/><rect x="-37.5" width="450" fill="#ffffff" y="-37.499999" height="449.999989" fill-opacity="1"/><g fill="#3bc48b" fill-opacity="1"><g transform="translate(97.382811, 186.775022)"><g><path d="M 7.078125 -3.0625 L 20.546875 -3.0625 L 20.546875 0 L 3.296875 0 L 3.296875 -28.4375 L 7.078125 -28.4375 Z M 7.078125 -3.0625 "/></g></g></g><g fill="#3bc48b" fill-opacity="1"><g transform="translate(118.904145, 186.775022)"><g><path d="M 11.5 0.390625 C 8.632812 0.390625 6.300781 -0.546875 4.5 -2.421875 C 2.707031 -4.304688 1.8125 -6.828125 1.8125 -9.984375 L 1.8125 -10.640625 C 1.8125 -12.742188 2.210938 -14.617188 3.015625 -16.265625 C 3.816406 -17.910156 4.9375 -19.195312 6.375 -20.125 C 7.8125 -21.0625 9.375 -21.53125 11.0625 -21.53125 C 13.800781 -21.53125 15.929688 -20.625 17.453125 -18.8125 C 18.984375 -17 19.75 -14.40625 19.75 -11.03125 L 19.75 -9.53125 L 5.4375 -9.53125 C 5.488281 -7.445312 6.09375 -5.765625 7.25 -4.484375 C 8.414062 -3.203125 9.898438 -2.5625 11.703125 -2.5625 C 12.972656 -2.5625 14.050781 -2.820312 14.9375 -3.34375 C 15.820312 -3.863281 16.597656 -4.550781 17.265625 -5.40625 L 19.46875 -3.6875 C 17.695312 -0.96875 15.039062 0.390625 11.5 0.390625 Z M 11.0625 -18.5625 C 9.601562 -18.5625 8.378906 -18.03125 7.390625 -16.96875 C 6.398438 -15.90625 5.785156 -14.414062 5.546875 -12.5 L 16.140625 -12.5 L 16.140625 -12.78125 C 16.035156 -14.613281 15.539062 -16.035156 14.65625 -17.046875 C 13.769531 -18.054688 12.570312 -18.5625 11.0625 -18.5625 Z M 11.0625 -18.5625 "/></g></g></g><g fill="#3bc48b" fill-opacity="1"><g transform="translate(140.093486, 186.775022)"><g><path d="M 7.640625 -26.25 L 7.640625 -21.140625 L 11.578125 -21.140625 L 11.578125 -18.34375 L 7.640625 -18.34375 L 7.640625 -5.234375 C 7.640625 -4.390625 7.8125 -3.753906 8.15625 -3.328125 C 8.507812 -2.910156 9.113281 -2.703125 9.96875 -2.703125 C 10.382812 -2.703125 10.957031 -2.78125 11.6875 -2.9375 L 11.6875 0 C 10.726562 0.257812 9.800781 0.390625 8.90625 0.390625 C 7.289062 0.390625 6.070312 -0.0976562 5.25 -1.078125 C 4.4375 -2.054688 4.03125 -3.441406 4.03125 -5.234375 L 4.03125 -18.34375 L 0.171875 -18.34375 L 0.171875 -21.140625 L 4.03125 -21.140625 L 4.03125 -26.25 Z M 7.640625 -26.25 "/></g></g></g><g fill="#3bc48b" fill-opacity="1"><g transform="translate(153.158621, 186.775022)"><g><path d="M 2.984375 -20.4375 L 0.9375 -21.84375 C 2.144531 -23.53125 2.769531 -25.3125 2.8125 -27.1875 L 2.8125 -30 L 6.390625 -30 L 6.390625 -27.46875 C 6.378906 -26.164062 6.054688 -24.863281 5.421875 -23.5625 C 4.785156 -22.269531 3.972656 -21.226562 2.984375 -20.4375 Z M 2.984375 -20.4375 "/></g></g></g><g fill="#3bc48b" fill-opacity="1"><g transform="translate(161.146128, 186.775022)"><g><path d="M 15.046875 -5.609375 C 15.046875 -6.585938 14.675781 -7.34375 13.9375 -7.875 C 13.195312 -8.414062 11.910156 -8.878906 10.078125 -9.265625 C 8.253906 -9.660156 6.804688 -10.128906 5.734375 -10.671875 C 4.660156 -11.222656 3.863281 -11.875 3.34375 -12.625 C 2.832031 -13.382812 2.578125 -14.285156 2.578125 -15.328125 C 2.578125 -17.066406 3.304688 -18.535156 4.765625 -19.734375 C 6.234375 -20.929688 8.109375 -21.53125 10.390625 -21.53125 C 12.785156 -21.53125 14.726562 -20.910156 16.21875 -19.671875 C 17.707031 -18.429688 18.453125 -16.847656 18.453125 -14.921875 L 14.828125 -14.921875 C 14.828125 -15.910156 14.40625 -16.765625 13.5625 -17.484375 C 12.726562 -18.203125 11.671875 -18.5625 10.390625 -18.5625 C 9.078125 -18.5625 8.046875 -18.273438 7.296875 -17.703125 C 6.554688 -17.128906 6.1875 -16.378906 6.1875 -15.453125 C 6.1875 -14.578125 6.53125 -13.914062 7.21875 -13.46875 C 7.914062 -13.03125 9.164062 -12.609375 10.96875 -12.203125 C 12.769531 -11.804688 14.226562 -11.328125 15.34375 -10.765625 C 16.46875 -10.203125 17.300781 -9.523438 17.84375 -8.734375 C 18.382812 -7.953125 18.65625 -6.992188 18.65625 -5.859375 C 18.65625 -3.972656 17.898438 -2.457031 16.390625 -1.3125 C 14.878906 -0.175781 12.921875 0.390625 10.515625 0.390625 C 8.816406 0.390625 7.316406 0.09375 6.015625 -0.5 C 4.710938 -1.101562 3.691406 -1.941406 2.953125 -3.015625 C 2.222656 -4.085938 1.859375 -5.25 1.859375 -6.5 L 5.46875 -6.5 C 5.53125 -5.289062 6.015625 -4.332031 6.921875 -3.625 C 7.828125 -2.914062 9.023438 -2.5625 10.515625 -2.5625 C 11.878906 -2.5625 12.972656 -2.835938 13.796875 -3.390625 C 14.628906 -3.941406 15.046875 -4.679688 15.046875 -5.609375 Z M 15.046875 -5.609375 "/></g></g></g><g fill="#3bc48b" fill-opacity="1"><g transform="translate(181.769524, 186.775022)"><g><path d="M 21.21875 -10.375 C 21.21875 -6.988281 20.492188 -4.347656 19.046875 -2.453125 C 17.597656 -0.554688 15.578125 0.390625 12.984375 0.390625 C 10.691406 0.390625 8.863281 -0.488281 7.5 -2.25 L 7.25 0 L 2.171875 0 L 2.171875 -30 L 7.8125 -30 L 7.8125 -19.234375 C 9.113281 -20.765625 10.828125 -21.53125 12.953125 -21.53125 C 15.523438 -21.53125 17.546875 -20.582031 19.015625 -18.6875 C 20.484375 -16.789062 21.21875 -14.125 21.21875 -10.6875 Z M 15.5625 -10.78125 C 15.5625 -12.914062 15.222656 -14.472656 14.546875 -15.453125 C 13.867188 -16.441406 12.863281 -16.9375 11.53125 -16.9375 C 9.726562 -16.9375 8.488281 -16.203125 7.8125 -14.734375 L 7.8125 -6.390625 C 8.5 -4.898438 9.75 -4.15625 11.5625 -4.15625 C 13.382812 -4.15625 14.582031 -5.054688 15.15625 -6.859375 C 15.425781 -7.710938 15.5625 -9.019531 15.5625 -10.78125 Z M 15.5625 -10.78125 "/></g></g></g><g fill="#3bc48b" fill-opacity="1"><g transform="translate(204.28686, 186.775022)"><g><path d="M 8.125 0 L 2.46875 0 L 2.46875 -21.140625 L 8.125 -21.140625 Z M 2.125 -26.609375 C 2.125 -27.453125 2.40625 -28.144531 2.96875 -28.6875 C 3.539062 -29.238281 4.316406 -29.515625 5.296875 -29.515625 C 6.253906 -29.515625 7.019531 -29.238281 7.59375 -28.6875 C 8.164062 -28.144531 8.453125 -27.453125 8.453125 -26.609375 C 8.453125 -25.742188 8.160156 -25.035156 7.578125 -24.484375 C 7.003906 -23.941406 6.242188 -23.671875 5.296875 -23.671875 C 4.347656 -23.671875 3.582031 -23.941406 3 -24.484375 C 2.414062 -25.035156 2.125 -25.742188 2.125 -26.609375 Z M 2.125 -26.609375 "/></g></g></g><g fill="#3bc48b" fill-opacity="1"><g transform="translate(214.891298, 186.775022)"><g><path d="M 9.84375 -8.484375 L 7.8125 -6.453125 L 7.8125 0 L 2.171875 0 L 2.171875 -30 L 7.8125 -30 L 7.8125 -13.375 L 8.90625 -14.78125 L 14.3125 -21.140625 L 21.09375 -21.140625 L 13.453125 -12.328125 L 21.765625 0 L 15.28125 0 Z M 9.84375 -8.484375 "/></g></g></g><g fill="#3bc48b" fill-opacity="1"><g transform="translate(236.256398, 186.775022)"><g><path d="M 11.890625 0.390625 C 8.796875 0.390625 6.273438 -0.554688 4.328125 -2.453125 C 2.378906 -4.359375 1.40625 -6.894531 1.40625 -10.0625 L 1.40625 -10.609375 C 1.40625 -12.734375 1.816406 -14.628906 2.640625 -16.296875 C 3.460938 -17.972656 4.625 -19.265625 6.125 -20.171875 C 7.625 -21.078125 9.335938 -21.53125 11.265625 -21.53125 C 14.160156 -21.53125 16.4375 -20.617188 18.09375 -18.796875 C 19.757812 -16.972656 20.59375 -14.382812 20.59375 -11.03125 L 20.59375 -8.734375 L 7.125 -8.734375 C 7.3125 -7.347656 7.863281 -6.238281 8.78125 -5.40625 C 9.695312 -4.570312 10.859375 -4.15625 12.265625 -4.15625 C 14.441406 -4.15625 16.140625 -4.945312 17.359375 -6.53125 L 20.140625 -3.421875 C 19.296875 -2.222656 18.148438 -1.285156 16.703125 -0.609375 C 15.253906 0.0546875 13.648438 0.390625 11.890625 0.390625 Z M 11.25 -16.953125 C 10.132812 -16.953125 9.226562 -16.570312 8.53125 -15.8125 C 7.832031 -15.0625 7.382812 -13.984375 7.1875 -12.578125 L 15.046875 -12.578125 L 15.046875 -13.03125 C 15.015625 -14.28125 14.671875 -15.242188 14.015625 -15.921875 C 13.367188 -16.609375 12.445312 -16.953125 11.25 -16.953125 Z M 11.25 -16.953125 "/></g></g></g><g fill="#3bc48b" fill-opacity="1"><g transform="translate(257.875384, 186.775022)"><g><path d="M 3.640625 7.125 L 0.6875 5.59375 L 1.390625 4.3125 C 2.265625 2.726562 2.710938 1.144531 2.734375 -0.4375 L 2.734375 -4.8125 L 7.5 -4.8125 L 7.484375 -0.90625 C 7.472656 0.539062 7.109375 2 6.390625 3.46875 C 5.671875 4.945312 4.753906 6.164062 3.640625 7.125 Z M 3.640625 7.125 "/></g></g></g><g fill="#3bc48b" fill-opacity="1"><g transform="translate(267.644522, 186.775022)"><g/></g></g><g fill="#3bc48b" fill-opacity="1"><g transform="translate(157.710932, 222.02502)"><g><path d="M 3.53125 -1.53125 L 10.28125 -1.53125 L 10.28125 0 L 1.65625 0 L 1.65625 -14.21875 L 3.53125 -14.21875 Z M 3.53125 -1.53125 "/></g></g></g><g fill="#3bc48b" fill-opacity="1"><g transform="translate(168.468446, 222.02502)"><g><path d="M 3.328125 0 L 1.53125 0 L 1.53125 -10.5625 L 3.328125 -10.5625 Z M 1.375 -13.375 C 1.375 -13.664062 1.460938 -13.910156 1.640625 -14.109375 C 1.828125 -14.316406 2.09375 -14.421875 2.4375 -14.421875 C 2.789062 -14.421875 3.054688 -14.316406 3.234375 -14.109375 C 3.421875 -13.910156 3.515625 -13.664062 3.515625 -13.375 C 3.515625 -13.082031 3.421875 -12.835938 3.234375 -12.640625 C 3.054688 -12.441406 2.789062 -12.34375 2.4375 -12.34375 C 2.09375 -12.34375 1.828125 -12.441406 1.640625 -12.640625 C 1.460938 -12.835938 1.375 -13.082031 1.375 -13.375 Z M 1.375 -13.375 "/></g></g></g><g fill="#3bc48b" fill-opacity="1"><g transform="translate(173.320066, 222.02502)"><g><path d="M 7.515625 -2.796875 C 7.515625 -3.285156 7.332031 -3.664062 6.96875 -3.9375 C 6.601562 -4.207031 5.960938 -4.441406 5.046875 -4.640625 C 4.128906 -4.835938 3.398438 -5.070312 2.859375 -5.34375 C 2.328125 -5.613281 1.929688 -5.9375 1.671875 -6.3125 C 1.421875 -6.695312 1.296875 -7.148438 1.296875 -7.671875 C 1.296875 -8.535156 1.660156 -9.265625 2.390625 -9.859375 C 3.117188 -10.460938 4.054688 -10.765625 5.203125 -10.765625 C 6.398438 -10.765625 7.367188 -10.453125 8.109375 -9.828125 C 8.859375 -9.210938 9.234375 -8.425781 9.234375 -7.46875 L 7.40625 -7.46875 C 7.40625 -7.957031 7.195312 -8.378906 6.78125 -8.734375 C 6.363281 -9.097656 5.835938 -9.28125 5.203125 -9.28125 C 4.535156 -9.28125 4.015625 -9.132812 3.640625 -8.84375 C 3.273438 -8.5625 3.09375 -8.1875 3.09375 -7.71875 C 3.09375 -7.289062 3.265625 -6.960938 3.609375 -6.734375 C 3.953125 -6.515625 4.578125 -6.300781 5.484375 -6.09375 C 6.390625 -5.894531 7.117188 -5.65625 7.671875 -5.375 C 8.234375 -5.101562 8.648438 -4.769531 8.921875 -4.375 C 9.191406 -3.976562 9.328125 -3.5 9.328125 -2.9375 C 9.328125 -1.988281 8.945312 -1.226562 8.1875 -0.65625 C 7.4375 -0.0820312 6.457031 0.203125 5.25 0.203125 C 4.40625 0.203125 3.65625 0.0507812 3 -0.25 C 2.351562 -0.550781 1.84375 -0.96875 1.46875 -1.5 C 1.101562 -2.039062 0.921875 -2.625 0.921875 -3.25 L 2.734375 -3.25 C 2.765625 -2.644531 3.003906 -2.164062 3.453125 -1.8125 C 3.910156 -1.457031 4.507812 -1.28125 5.25 -1.28125 C 5.9375 -1.28125 6.484375 -1.414062 6.890625 -1.6875 C 7.304688 -1.96875 7.515625 -2.335938 7.515625 -2.796875 Z M 7.515625 -2.796875 "/></g></g></g><g fill="#3bc48b" fill-opacity="1"><g transform="translate(183.628537, 222.02502)"><g><path d="M 10.3125 -5.171875 C 10.3125 -3.554688 9.941406 -2.253906 9.203125 -1.265625 C 8.460938 -0.285156 7.46875 0.203125 6.21875 0.203125 C 4.875 0.203125 3.835938 -0.269531 3.109375 -1.21875 L 3.03125 0 L 1.375 0 L 1.375 -15 L 3.171875 -15 L 3.171875 -9.40625 C 3.898438 -10.3125 4.90625 -10.765625 6.1875 -10.765625 C 7.46875 -10.765625 8.472656 -10.28125 9.203125 -9.3125 C 9.941406 -8.34375 10.3125 -7.015625 10.3125 -5.328125 Z M 8.5 -5.375 C 8.5 -6.601562 8.257812 -7.550781 7.78125 -8.21875 C 7.3125 -8.894531 6.632812 -9.234375 5.75 -9.234375 C 4.550781 -9.234375 3.691406 -8.675781 3.171875 -7.5625 L 3.171875 -3 C 3.722656 -1.894531 4.585938 -1.34375 5.765625 -1.34375 C 6.628906 -1.34375 7.300781 -1.675781 7.78125 -2.34375 C 8.257812 -3.007812 8.5 -4.019531 8.5 -5.375 Z M 8.5 -5.375 "/></g></g></g><g fill="#3bc48b" fill-opacity="1"><g transform="translate(194.844856, 222.02502)"><g><path d="M 0.890625 -5.375 C 0.890625 -6.414062 1.09375 -7.347656 1.5 -8.171875 C 1.90625 -9.003906 2.46875 -9.644531 3.1875 -10.09375 C 3.914062 -10.539062 4.75 -10.765625 5.6875 -10.765625 C 7.125 -10.765625 8.285156 -10.265625 9.171875 -9.265625 C 10.066406 -8.273438 10.515625 -6.953125 10.515625 -5.296875 L 10.515625 -5.171875 C 10.515625 -4.140625 10.316406 -3.210938 9.921875 -2.390625 C 9.523438 -1.578125 8.957031 -0.941406 8.21875 -0.484375 C 7.488281 -0.0234375 6.648438 0.203125 5.703125 0.203125 C 4.273438 0.203125 3.113281 -0.296875 2.21875 -1.296875 C 1.332031 -2.296875 0.890625 -3.613281 0.890625 -5.25 Z M 2.703125 -5.171875 C 2.703125 -3.992188 2.972656 -3.050781 3.515625 -2.34375 C 4.066406 -1.632812 4.796875 -1.28125 5.703125 -1.28125 C 6.617188 -1.28125 7.347656 -1.640625 7.890625 -2.359375 C 8.429688 -3.078125 8.703125 -4.082031 8.703125 -5.375 C 8.703125 -6.539062 8.425781 -7.484375 7.875 -8.203125 C 7.320312 -8.921875 6.59375 -9.28125 5.6875 -9.28125 C 4.789062 -9.28125 4.066406 -8.925781 3.515625 -8.21875 C 2.972656 -7.507812 2.703125 -6.492188 2.703125 -5.171875 Z M 2.703125 -5.171875 "/></g></g></g><g fill="#3bc48b" fill-opacity="1"><g transform="translate(206.24665, 222.02502)"><g><path d="M 3.078125 -10.5625 L 3.140625 -9.234375 C 3.941406 -10.253906 4.992188 -10.765625 6.296875 -10.765625 C 8.535156 -10.765625 9.660156 -9.503906 9.671875 -6.984375 L 9.671875 0 L 7.875 0 L 7.875 -7 C 7.863281 -7.757812 7.6875 -8.320312 7.34375 -8.6875 C 7.007812 -9.050781 6.476562 -9.234375 5.75 -9.234375 C 5.164062 -9.234375 4.648438 -9.078125 4.203125 -8.765625 C 3.765625 -8.453125 3.421875 -8.039062 3.171875 -7.53125 L 3.171875 0 L 1.375 0 L 1.375 -10.5625 Z M 3.078125 -10.5625 "/></g></g></g><g clip-path="url(#4334d1d286)"><path fill="#3bc48b" d="M 195.636719 98.152344 C 190.722656 93.234375 184.1875 90.53125 177.238281 90.53125 C 170.289062 90.53125 163.753906 93.238281 158.839844 98.152344 C 153.921875 103.066406 151.21875 109.601562 151.21875 116.550781 C 151.21875 123.5 153.925781 130.035156 158.839844 134.949219 C 163.753906 139.867188 170.289062 142.570312 177.238281 142.570312 C 184.191406 142.570312 190.722656 139.867188 195.640625 134.949219 C 200.554688 130.035156 203.261719 123.503906 203.261719 116.550781 C 203.261719 109.597656 200.554688 103.066406 195.636719 98.152344 Z M 194.664062 133.980469 C 190.011719 138.632812 183.820312 141.199219 177.238281 141.199219 C 170.65625 141.199219 164.464844 138.632812 159.808594 133.980469 C 155.15625 129.324219 152.589844 123.132812 152.589844 116.550781 C 152.589844 109.96875 155.15625 103.777344 159.808594 99.121094 C 164.464844 94.46875 170.65625 91.902344 177.238281 91.902344 C 183.820312 91.902344 190.011719 94.46875 194.664062 99.121094 C 199.320312 103.777344 201.886719 109.96875 201.886719 116.550781 C 201.886719 123.132812 199.320312 129.324219 194.664062 133.980469 Z M 194.664062 133.980469 " fill-opacity="1" fill-rule="nonzero"/></g><path fill="#3bc48b" d="M 194.359375 99.429688 C 189.785156 94.859375 183.707031 92.335938 177.238281 92.335938 C 170.769531 92.335938 164.691406 94.855469 160.117188 99.429688 C 155.542969 104.003906 153.023438 110.082031 153.023438 116.550781 C 153.023438 123.019531 155.542969 129.097656 160.117188 133.671875 C 164.691406 138.246094 170.769531 140.761719 177.238281 140.761719 C 183.707031 140.761719 189.785156 138.246094 194.359375 133.671875 C 198.933594 129.097656 201.449219 123.019531 201.449219 116.550781 C 201.449219 110.082031 198.929688 104.003906 194.359375 99.429688 Z M 200.070312 116.210938 L 199.367188 116.210938 C 199.265625 116.210938 199.171875 116.261719 199.109375 116.332031 L 181.636719 116.332031 C 181.613281 115.882812 181.527344 115.449219 181.378906 115.042969 L 197.484375 108.269531 C 197.570312 108.3125 197.671875 108.320312 197.765625 108.28125 L 198.425781 108.003906 C 199.46875 110.582031 200.03125 113.355469 200.070312 116.210938 Z M 198.167969 107.378906 L 197.507812 107.65625 C 197.410156 107.699219 197.347656 107.777344 197.316406 107.867188 L 181.210938 114.644531 C 181.027344 114.257812 180.789062 113.902344 180.503906 113.589844 L 192.859375 101.234375 C 192.957031 101.242188 193.054688 101.214844 193.128906 101.140625 L 193.625 100.640625 C 195.554688 102.632812 197.082031 104.910156 198.167969 107.378906 Z M 185.910156 96.1875 L 186.179688 95.523438 C 188.738281 96.613281 191.097656 98.175781 193.144531 100.164062 L 192.648438 100.664062 C 192.574219 100.738281 192.542969 100.835938 192.550781 100.929688 L 180.195312 113.289062 C 179.871094 112.992188 179.503906 112.746094 179.101562 112.558594 L 185.699219 96.378906 C 185.789062 96.351562 185.871094 96.28125 185.910156 96.1875 Z M 177.453125 94.679688 C 177.527344 94.617188 177.578125 94.523438 177.578125 94.421875 L 177.578125 93.71875 C 180.347656 93.757812 183.039062 94.289062 185.550781 95.269531 L 185.28125 95.929688 C 185.242188 96.027344 185.25 96.128906 185.296875 96.214844 L 178.699219 112.394531 C 178.308594 112.253906 177.890625 112.171875 177.453125 112.148438 Z M 176.898438 93.71875 L 176.898438 94.421875 C 176.898438 94.523438 176.945312 94.617188 177.019531 94.679688 L 177.019531 112.152344 C 176.570312 112.171875 176.136719 112.261719 175.730469 112.410156 L 168.957031 96.304688 C 169 96.21875 169.007812 96.117188 168.96875 96.019531 L 168.691406 95.363281 C 171.269531 94.320312 174.042969 93.757812 176.898438 93.71875 Z M 168.066406 95.621094 L 168.34375 96.28125 C 168.386719 96.375 168.464844 96.441406 168.554688 96.472656 L 175.332031 112.578125 C 174.945312 112.761719 174.589844 113 174.277344 113.285156 L 161.921875 100.929688 C 161.929688 100.832031 161.898438 100.734375 161.828125 100.660156 L 161.328125 100.164062 C 163.320312 98.234375 165.597656 96.707031 168.066406 95.621094 Z M 160.851562 100.644531 L 161.351562 101.140625 C 161.421875 101.214844 161.523438 101.246094 161.617188 101.238281 L 173.972656 113.59375 C 173.679688 113.917969 173.433594 114.285156 173.246094 114.6875 L 157.066406 108.089844 C 157.035156 107.996094 156.96875 107.917969 156.871094 107.878906 L 156.210938 107.609375 C 157.300781 105.050781 158.863281 102.691406 160.851562 100.644531 Z M 155.957031 108.238281 L 156.617188 108.507812 C 156.714844 108.546875 156.816406 108.539062 156.902344 108.492188 L 173.082031 115.089844 C 172.941406 115.480469 172.859375 115.898438 172.835938 116.332031 L 155.363281 116.332031 C 155.300781 116.257812 155.210938 116.210938 155.105469 116.210938 L 154.402344 116.210938 C 154.445312 113.441406 154.972656 110.75 155.957031 108.238281 Z M 154.40625 116.890625 L 155.109375 116.890625 C 155.210938 116.890625 155.304688 116.839844 155.367188 116.769531 L 172.839844 116.769531 C 172.859375 117.21875 172.949219 117.652344 173.097656 118.058594 L 156.992188 124.832031 C 156.90625 124.789062 156.804688 124.78125 156.707031 124.820312 L 156.050781 125.09375 C 155.007812 122.519531 154.445312 119.746094 154.40625 116.890625 Z M 156.308594 125.722656 L 156.96875 125.445312 C 157.0625 125.402344 157.128906 125.324219 157.160156 125.230469 L 173.261719 118.457031 C 173.449219 118.84375 173.6875 119.199219 173.972656 119.511719 L 161.617188 131.867188 C 161.519531 131.859375 161.421875 131.886719 161.347656 131.960938 L 160.851562 132.460938 C 158.921875 130.46875 157.394531 128.191406 156.308594 125.722656 Z M 168.566406 136.914062 L 168.296875 137.578125 C 165.738281 136.488281 163.378906 134.925781 161.332031 132.9375 L 161.828125 132.4375 C 161.902344 132.363281 161.933594 132.265625 161.925781 132.167969 L 174.28125 119.8125 C 174.605469 120.109375 174.972656 120.355469 175.375 120.542969 L 168.777344 136.722656 C 168.683594 136.75 168.605469 136.820312 168.566406 136.914062 Z M 177.019531 138.421875 C 176.945312 138.484375 176.898438 138.578125 176.898438 138.679688 L 176.898438 139.382812 C 174.128906 139.34375 171.4375 138.8125 168.925781 137.832031 L 169.195312 137.171875 C 169.234375 137.074219 169.226562 136.972656 169.179688 136.886719 L 175.777344 120.707031 C 176.167969 120.847656 176.585938 120.929688 177.019531 120.953125 Z M 177.238281 119.429688 C 175.648438 119.429688 174.363281 118.140625 174.363281 116.550781 C 174.363281 114.960938 175.648438 113.675781 177.238281 113.675781 C 178.828125 113.675781 180.113281 114.960938 180.113281 116.550781 C 180.113281 118.140625 178.828125 119.429688 177.238281 119.429688 Z M 177.574219 139.382812 L 177.574219 138.679688 C 177.574219 138.578125 177.527344 138.484375 177.453125 138.421875 L 177.453125 120.949219 C 177.90625 120.925781 178.339844 120.839844 178.746094 120.691406 L 185.519531 136.796875 C 185.476562 136.882812 185.464844 136.984375 185.507812 137.078125 L 185.78125 137.738281 C 183.207031 138.78125 180.433594 139.34375 177.574219 139.382812 Z M 186.410156 137.480469 L 186.132812 136.820312 C 186.089844 136.722656 186.011719 136.660156 185.917969 136.628906 L 179.144531 120.523438 C 179.53125 120.339844 179.886719 120.101562 180.199219 119.816406 L 192.554688 132.171875 C 192.546875 132.269531 192.574219 132.367188 192.648438 132.441406 L 193.148438 132.9375 C 191.15625 134.867188 188.878906 136.394531 186.410156 137.480469 Z M 193.625 132.457031 L 193.125 131.960938 C 193.050781 131.886719 192.953125 131.855469 192.855469 131.863281 L 180.5 119.507812 C 180.796875 119.183594 181.039062 118.816406 181.230469 118.414062 L 197.410156 125.011719 C 197.4375 125.101562 197.503906 125.183594 197.601562 125.222656 L 198.265625 125.492188 C 197.175781 128.050781 195.613281 130.410156 193.625 132.457031 Z M 198.519531 124.863281 L 197.859375 124.59375 C 197.761719 124.554688 197.660156 124.5625 197.574219 124.609375 L 181.394531 118.011719 C 181.535156 117.621094 181.617188 117.203125 181.636719 116.769531 L 199.113281 116.769531 C 199.171875 116.839844 199.265625 116.890625 199.371094 116.890625 L 200.074219 116.890625 C 200.03125 119.660156 199.503906 122.351562 198.519531 124.863281 Z M 198.519531 124.863281 " fill-opacity="1" fill-rule="nonzero"/></svg>